<svg xmlns="http://www.w3.org/2000/svg" version="1.1" xmlns:xlink="http://www.w3.org/1999/xlink" xmlns:svgjs="http://svgjs.dev/svgjs" width="1000" height="1000" viewBox="0 0 1000 1000"><rect width="1000" height="1000" fill="#ffffff"></rect><g transform="matrix(0.7,0,0,0.7,149.57575757575756,282.1265587044535)"><svg viewBox="0 0 396 247" data-background-color="#90adbb" preserveAspectRatio="xMidYMid meet" height="623" width="1000" xmlns="http://www.w3.org/2000/svg" xmlns:xlink="http://www.w3.org/1999/xlink"><g id="tight-bounds" transform="matrix(1,0,0,1,0.2400000000000091,-0.09999999999999432)"><svg viewBox="0 0 395.52 247.2" height="247.2" width="395.52"><g><svg></svg></g><g><svg viewBox="0 0 395.52 247.2" height="247.2" width="395.52"><g transform="matrix(1,0,0,1,75.54432,78.28388781583529)"><svg viewBox="0 0 244.43135999999998 90.63222436832942" height="90.63222436832942" width="244.43135999999998"><g><svg viewBox="0 0 244.43135999999998 90.63222436832942" height="90.63222436832942" width="244.43135999999998"><g><svg viewBox="0 0 244.43135999999998 90.63222436832942" height="90.63222436832942" width="244.43135999999998"><g><svg viewBox="0 0 244.43135999999998 90.63222436832942" height="90.63222436832942" width="244.43135999999998"><g><svg viewBox="0 0 244.43135999999998 90.63222436832942" height="90.63222436832942" width="244.43135999999998"><g><svg viewBox="0 0 244.43135999999998 53.45237301704965" height="53.45237301704965" width="244.43135999999998"><g transform="matrix(1,0,0,1,0,0)"><svg width="244.43135999999998" viewBox="4.099999904632568 -35.25 202.32998657226562 44.25" height="53.45237301704965" data-palette-color="#f6f6f6"><path d="M18.1 0.4Q11.2 0.4 7.65-3.2 4.1-6.8 4.1-13.8L4.1-13.8 4.1-35.25 8.15-35.25 8.15-13.45Q8.15-8.3 10.68-5.7 13.2-3.1 18.1-3.1L18.1-3.1Q23-3.1 25.5-5.7 28-8.3 28-13.45L28-13.45 28-35.25 32.1-35.25 32.1-13.8Q32.1-6.85 28.53-3.23 24.95 0.4 18.1 0.4L18.1 0.4ZM52.2-24.95Q60.95-24.95 60.95-15.3L60.95-15.3 60.95 0 56.9 0 56.9-15.05Q56.9-18.45 55.57-20 54.25-21.55 51.35-21.55L51.35-21.55Q48-21.55 46-19.5 44-17.45 44-13.95L44-13.95 44 0 39.95 0 39.95-24.35 43.95-24.35 43.95-20.35Q45.15-22.6 47.3-23.78 49.45-24.95 52.2-24.95L52.2-24.95ZM72.4 0L68.35 0 68.35-24.35 72.4-24.35 72.4 0ZM67.95-30.35L67.95-34.9 72.85-34.9 72.85-30.35 67.95-30.35ZM97.49-24.35L101.54-24.35 101.54 9 97.49 9 97.49-4.45Q96.39-2.15 94.27-0.9 92.14 0.35 89.29 0.35L89.29 0.35Q86.04 0.35 83.62-1.2 81.19-2.75 79.84-5.58 78.49-8.4 78.49-12.2L78.49-12.2Q78.49-16 79.84-18.88 81.19-21.75 83.64-23.35 86.09-24.95 89.29-24.95L89.29-24.95Q92.14-24.95 94.27-23.7 96.39-22.45 97.49-20.15L97.49-20.15 97.49-24.35ZM90.09-3Q93.64-3 95.57-5.43 97.49-7.85 97.49-12.3L97.49-12.3Q97.49-16.75 95.57-19.15 93.64-21.55 90.09-21.55L90.09-21.55Q86.54-21.55 84.57-19.07 82.59-16.6 82.59-12.2L82.59-12.2Q82.59-7.8 84.57-5.4 86.54-3 90.09-3L90.09-3ZM122.29 0L118.14 0 118.14-31.75 105.89-31.75 105.89-35.25 134.59-35.25 134.59-31.75 122.29-31.75 122.29 0ZM155.54-13.05L155.54-11.55 137.74-11.55Q137.94-7.3 140.04-5.13 142.14-2.95 145.99-2.95L145.99-2.95Q150.24-2.95 153.79-5.85L153.79-5.85 155.14-2.9Q153.54-1.4 151.04-0.53 148.54 0.35 145.94 0.35L145.94 0.35Q140.24 0.35 136.96-3 133.69-6.35 133.69-12.25L133.69-12.25Q133.69-16 135.14-18.88 136.59-21.75 139.21-23.35 141.84-24.95 145.19-24.95L145.19-24.95Q150.04-24.95 152.79-21.78 155.54-18.6 155.54-13.05L155.54-13.05ZM145.24-21.8Q142.04-21.8 140.11-19.8 138.19-17.8 137.84-14.15L137.84-14.15 151.99-14.15Q151.89-17.85 150.14-19.83 148.39-21.8 145.24-21.8L145.24-21.8ZM171.79 0.35Q168.19 0.35 165.54-1.2 162.89-2.75 161.46-5.58 160.04-8.4 160.04-12.2L160.04-12.2Q160.04-16 161.51-18.88 162.99-21.75 165.66-23.35 168.34-24.95 171.94-24.95L171.94-24.95Q174.39-24.95 176.74-24.08 179.09-23.2 180.54-21.75L180.54-21.75 179.19-18.75Q175.74-21.55 172.19-21.55L172.19-21.55Q168.44-21.55 166.34-19.1 164.24-16.65 164.24-12.2L164.24-12.2Q164.24-7.8 166.34-5.4 168.44-3 172.19-3L172.19-3Q175.74-3 179.19-5.8L179.19-5.8 180.54-2.8Q178.99-1.35 176.64-0.5 174.29 0.35 171.79 0.35L171.79 0.35ZM197.68-24.95Q206.43-24.95 206.43-15.3L206.43-15.3 206.43 0 202.38 0 202.38-15.05Q202.38-18.45 201.06-20 199.73-21.55 196.83-21.55L196.83-21.55Q193.48-21.55 191.48-19.5 189.48-17.45 189.48-13.95L189.48-13.95 189.48 0 185.43 0 185.43-35.25 189.48-35.25 189.48-20.45Q190.68-22.65 192.81-23.8 194.93-24.95 197.68-24.95L197.68-24.95Z" opacity="1" transform="matrix(1,0,0,1,0,0)" fill="#000000" class="undefined-text-0" data-fill-palette-color="primary" id="text-0"></path></svg></g></svg></g><g transform="matrix(1,0,0,1,0,66.07119542942266)"><svg viewBox="0 0 244.43135999999998 24.56102893890675" height="24.56102893890675" width="244.43135999999998"><g transform="matrix(1,0,0,1,0,0)"><svg width="244.43135999999998" viewBox="1.5 -37.5 497.5400085449219 50" height="24.56102893890675" data-palette-color="#f6f6f6"><path d="M17.55 0.7Q12.7 0.7 9.08-1.6 5.45-3.9 3.48-8.03 1.5-12.15 1.5-17.5L1.5-17.5Q1.5-22.95 3.58-27.08 5.65-31.2 9.33-33.45 13-35.7 17.6-35.7L17.6-35.7Q21.95-35.7 25.55-34.15L25.55-34.15 24.95-29.05Q23.25-29.85 21.68-30.25 20.1-30.65 18.2-30.65L18.2-30.65Q13.05-30.65 10.18-27.03 7.3-23.4 7.3-17.5L7.3-17.5Q7.3-11.45 10.03-7.9 12.75-4.35 17.95-4.35L17.95-4.35Q19.8-4.35 21.3-4.9L21.3-4.9 21.3-12.75 17.05-12.75 17.05-17.55 26.55-17.55 26.55-1.7Q24.85-0.6 22.5 0.05 20.15 0.7 17.55 0.7L17.55 0.7ZM30.9-29.5L30.9-35 36-35 36-29.5 30.9-29.5ZM30.9 0L30.9-24.7 36-24.7 36 0 30.9 0ZM47.05 0L38.74-24.7 44.09-24.7 49.39-6.4 54.64-24.7 60-24.7 51.74 0 47.05 0ZM62.79-29.5L62.79-35 67.89-35 67.89-29.5 62.79-29.5ZM62.79 0L62.79-24.7 67.89-24.7 67.89 0 62.79 0ZM84.09-25.15Q87.84-25.15 89.87-22.4 91.89-19.65 91.89-15L91.89-15 91.89 0 86.79 0 86.79-14.35Q86.79-17.6 85.82-19.23 84.84-20.85 82.79-20.85L82.79-20.85Q79.84-20.85 78.09-17.95L78.09-17.95 78.09 0 72.99 0 72.99-24.7 77.34-24.7 77.59-22.15Q78.69-23.55 80.37-24.35 82.04-25.15 84.09-25.15L84.09-25.15ZM105.04 12.5Q100.64 12.5 97.91 10.7 95.19 8.9 95.19 5.7L95.19 5.7Q95.19 2.15 99.04-0.3L99.04-0.3Q96.79-1.45 96.79-3.7L96.79-3.7Q96.79-5.95 99.34-7.2L99.34-7.2Q97.49-8.5 96.49-10.7 95.49-12.9 95.49-15.5L95.49-15.5Q95.49-18.2 96.56-20.4 97.64-22.6 99.64-23.88 101.64-25.15 104.34-25.15L104.34-25.15Q107.54-25.15 109.79-23.35L109.79-23.35Q111.69-25.15 113.94-25.15L113.94-25.15Q114.59-25.15 115.19-25.05L115.19-25.05 114.74-21.4Q114.24-21.5 113.74-21.5L113.74-21.5Q112.69-21.5 111.74-21.1L111.74-21.1Q113.19-18.65 113.19-15.5L113.19-15.5Q113.19-12.8 112.11-10.55 111.04-8.3 109.04-6.98 107.04-5.65 104.34-5.65L104.34-5.65Q103.24-5.65 102.09-5.9L102.09-5.9Q101.39-5.6 101.39-4.9L101.39-4.9Q101.39-4.35 101.91-4 102.44-3.65 103.69-3.3L103.69-3.3 107.89-2.2Q112.04-1.05 113.84 0.55 115.64 2.15 115.64 5.05L115.64 5.05Q115.64 8.5 112.69 10.5 109.74 12.5 105.04 12.5L105.04 12.5ZM104.34-9.55Q106.24-9.55 107.34-11.18 108.44-12.8 108.44-15.45L108.44-15.45Q108.44-18 107.34-19.63 106.24-21.25 104.34-21.25L104.34-21.25Q102.39-21.25 101.31-19.65 100.24-18.05 100.24-15.45L100.24-15.45Q100.24-12.8 101.31-11.18 102.39-9.55 104.34-9.55L104.34-9.55ZM105.29 8.5Q107.84 8.5 109.36 7.7 110.89 6.9 110.89 5.35L110.89 5.35Q110.89 4.05 109.99 3.33 109.09 2.6 106.74 1.95L106.74 1.95 102.64 0.8Q99.54 2.75 99.54 4.95L99.54 4.95Q99.54 6.7 101.09 7.6 102.64 8.5 105.29 8.5L105.29 8.5ZM128.48 0L128.48-35 146.98-35 146.98-30.2 133.73-30.2 133.73-20.75 143.98-20.75 143.98-15.95 133.73-15.95 133.73 0 128.48 0ZM162.23-24.7L167.33-24.7 167.33 0 162.93 0 162.68-2.5Q160.38 0.45 156.38 0.45L156.38 0.45Q152.53 0.45 150.63-2.08 148.73-4.6 148.73-9.15L148.73-9.15 148.73-24.7 153.83-24.7 153.83-9.8Q153.83-6.9 154.73-5.4 155.63-3.9 157.68-3.9L157.68-3.9Q160.43-3.9 162.23-6.75L162.23-6.75 162.23-24.7ZM179.73 0.5Q176.93 0.5 175.45-1.18 173.98-2.85 173.98-5.65L173.98-5.65 173.98-20.55 170.88-20.55 171.33-24.7 173.98-24.7 173.98-30.55 179.08-31.05 179.08-24.7 183.93-24.7 183.93-20.55 179.08-20.55 179.08-7.3Q179.08-5.4 179.83-4.58 180.58-3.75 182.28-3.75L182.28-3.75 183.93-3.75 183.48 0.5 179.73 0.5ZM200.73-24.7L205.83-24.7 205.83 0 201.43 0 201.18-2.5Q198.88 0.45 194.88 0.45L194.88 0.45Q191.03 0.45 189.13-2.08 187.23-4.6 187.23-9.15L187.23-9.15 187.23-24.7 192.33-24.7 192.33-9.8Q192.33-6.9 193.23-5.4 194.13-3.9 196.18-3.9L196.18-3.9Q198.93-3.9 200.73-6.75L200.73-6.75 200.73-24.7ZM211.12 0L211.12-24.7 215.42-24.7 215.92-21.25Q217.47-23.3 218.82-24.23 220.17-25.15 221.82-25.15L221.82-25.15Q222.52-25.15 223.02-25L223.02-25 222.57-19.6Q221.67-19.8 221.02-19.8L221.02-19.8Q219.62-19.8 218.37-19.07 217.12-18.35 216.17-17.2L216.17-17.2 216.17 0 211.12 0ZM235.62 0.5Q231.87 0.5 229.25-1.23 226.62-2.95 225.29-5.9 223.97-8.85 223.97-12.45L223.97-12.45Q223.97-16 225.19-18.9 226.42-21.8 228.79-23.48 231.17-25.15 234.47-25.15L234.47-25.15Q238.62-25.15 241.15-22.3 243.67-19.45 243.67-14.5L243.67-14.5Q243.67-13.4 243.42-11.8L243.42-11.8 229.17-11.8Q229.37-7.9 231.27-5.9 233.17-3.9 236.07-3.9L236.07-3.9Q237.72-3.9 239.4-4.33 241.07-4.75 242.42-5.55L242.42-5.55 242.72-1.05Q239.87 0.5 235.62 0.5L235.62 0.5ZM229.32-15.35L238.52-15.35Q238.52-17.8 237.5-19.3 236.47-20.8 234.32-20.8L234.32-20.8Q232.32-20.8 231.02-19.43 229.72-18.05 229.32-15.35L229.32-15.35ZM253.72 0.5Q251.57 0.5 249.79 0.03 248.02-0.45 246.37-1.4L246.37-1.4 246.92-6.2Q250.32-3.7 253.32-3.7L253.32-3.7Q255.07-3.7 256.04-4.4 257.02-5.1 257.02-6.45L257.02-6.45Q257.02-7.85 256.07-8.68 255.12-9.5 252.17-10.9L252.17-10.9Q249.27-12.25 247.94-13.88 246.62-15.5 246.62-18.2L246.62-18.2Q246.62-21.3 248.82-23.23 251.02-25.15 254.72-25.15L254.72-25.15Q258.37-25.15 261.12-23.45L261.12-23.45 260.57-18.9Q259.17-20 257.92-20.53 256.67-21.05 255.07-21.05L255.07-21.05Q253.47-21.05 252.52-20.35 251.57-19.65 251.57-18.4L251.57-18.4Q251.57-17.15 252.47-16.43 253.37-15.7 256.02-14.4L256.02-14.4Q259.22-12.9 260.62-11.23 262.02-9.55 262.02-6.85L262.02-6.85Q262.02-3.4 259.77-1.45 257.52 0.5 253.72 0.5L253.72 0.5ZM282.41 0.5Q279.61 0.5 278.14-1.18 276.66-2.85 276.66-5.65L276.66-5.65 276.66-20.55 273.56-20.55 274.01-24.7 276.66-24.7 276.66-30.55 281.76-31.05 281.76-24.7 286.61-24.7 286.61-20.55 281.76-20.55 281.76-7.3Q281.76-5.4 282.51-4.58 283.26-3.75 284.96-3.75L284.96-3.75 286.61-3.75 286.16 0.5 282.41 0.5ZM299.61 0.5Q296.31 0.5 293.86-1.23 291.41-2.95 290.11-5.88 288.81-8.8 288.81-12.35L288.81-12.35Q288.81-15.9 290.11-18.82 291.41-21.75 293.83-23.45 296.26-25.15 299.61-25.15L299.61-25.15Q302.96-25.15 305.41-23.45 307.86-21.75 309.16-18.82 310.46-15.9 310.46-12.35L310.46-12.35Q310.46-8.8 309.16-5.88 307.86-2.95 305.41-1.23 302.96 0.5 299.61 0.5L299.61 0.5ZM299.61-3.8Q302.31-3.8 303.78-6.1 305.26-8.4 305.26-12.35L305.26-12.35Q305.26-16.3 303.76-18.57 302.26-20.85 299.61-20.85L299.61-20.85Q296.96-20.85 295.48-18.57 294.01-16.3 294.01-12.35L294.01-12.35Q294.01-8.4 295.48-6.1 296.96-3.8 299.61-3.8L299.61-3.8ZM325.4 12.1L330.4-1.1 321.65-24.7 327-24.7 333-7 338.7-24.7 344.05-24.7 330.7 12.1 325.4 12.1ZM355.9 0.5Q352.6 0.5 350.15-1.23 347.7-2.95 346.4-5.88 345.1-8.8 345.1-12.35L345.1-12.35Q345.1-15.9 346.4-18.82 347.7-21.75 350.13-23.45 352.55-25.15 355.9-25.15L355.9-25.15Q359.25-25.15 361.7-23.45 364.15-21.75 365.45-18.82 366.75-15.9 366.75-12.35L366.75-12.35Q366.75-8.8 365.45-5.88 364.15-2.95 361.7-1.23 359.25 0.5 355.9 0.5L355.9 0.5ZM355.9-3.8Q358.6-3.8 360.08-6.1 361.55-8.4 361.55-12.35L361.55-12.35Q361.55-16.3 360.05-18.57 358.55-20.85 355.9-20.85L355.9-20.85Q353.25-20.85 351.78-18.57 350.3-16.3 350.3-12.35L350.3-12.35Q350.3-8.4 351.78-6.1 353.25-3.8 355.9-3.8L355.9-3.8ZM383.75-24.7L388.85-24.7 388.85 0 384.45 0 384.2-2.5Q381.9 0.45 377.9 0.45L377.9 0.45Q374.05 0.45 372.15-2.08 370.25-4.6 370.25-9.15L370.25-9.15 370.25-24.7 375.35-24.7 375.35-9.8Q375.35-6.9 376.25-5.4 377.15-3.9 379.2-3.9L379.2-3.9Q381.95-3.9 383.75-6.75L383.75-6.75 383.75-24.7ZM394.15 0L394.15-24.7 398.45-24.7 398.95-21.25Q400.5-23.3 401.85-24.23 403.2-25.15 404.85-25.15L404.85-25.15Q405.55-25.15 406.05-25L406.05-25 405.6-19.6Q404.7-19.8 404.05-19.8L404.05-19.8Q402.65-19.8 401.4-19.07 400.15-18.35 399.2-17.2L399.2-17.2 399.2 0 394.15 0ZM425.14 0L425.14-30.2 416.54-30.2 416.54-35 438.94-35 438.94-30.2 430.34-30.2 430.34 0 425.14 0ZM449.14 0.5Q445.39 0.5 442.77-1.23 440.14-2.95 438.82-5.9 437.49-8.85 437.49-12.45L437.49-12.45Q437.49-16 438.72-18.9 439.94-21.8 442.32-23.48 444.69-25.15 447.99-25.15L447.99-25.15Q452.14-25.15 454.67-22.3 457.19-19.45 457.19-14.5L457.19-14.5Q457.19-13.4 456.94-11.8L456.94-11.8 442.69-11.8Q442.89-7.9 444.79-5.9 446.69-3.9 449.59-3.9L449.59-3.9Q451.24-3.9 452.92-4.33 454.59-4.75 455.94-5.55L455.94-5.55 456.24-1.05Q453.39 0.5 449.14 0.5L449.14 0.5ZM442.84-15.35L452.04-15.35Q452.04-17.8 451.02-19.3 449.99-20.8 447.84-20.8L447.84-20.8Q445.84-20.8 444.54-19.43 443.24-18.05 442.84-15.35L442.84-15.35ZM471.09 0.5Q467.34 0.5 464.74-1.18 462.14-2.85 460.84-5.75 459.54-8.65 459.54-12.25L459.54-12.25Q459.54-17.95 462.54-21.55 465.54-25.15 471.24-25.15L471.24-25.15Q474.24-25.15 476.44-24.1L476.44-24.1 475.84-19.8Q473.84-20.85 471.59-20.85L471.59-20.85Q468.34-20.85 466.54-18.57 464.74-16.3 464.74-12.35L464.74-12.35Q464.74-8.5 466.56-6.15 468.39-3.8 471.69-3.8L471.69-3.8Q473.94-3.8 475.94-4.85L475.94-4.85 476.44-0.6Q475.44-0.1 474.01 0.2 472.59 0.5 471.09 0.5L471.09 0.5ZM491.24-25.15Q495.04-25.15 497.04-22.4 499.04-19.65 499.04-15L499.04-15 499.04 0 493.94 0 493.94-14.35Q493.94-17.6 492.96-19.2 491.99-20.8 489.94-20.8L489.94-20.8Q486.99-20.8 485.24-17.9L485.24-17.9 485.24 0 480.14 0 480.14-37.5 485.24-37.5 485.24-22.7Q487.54-25.15 491.24-25.15L491.24-25.15Z" opacity="1" transform="matrix(1,0,0,1,0,0)" fill="#000000" class="undefined-text-1" data-fill-palette-color="secondary" id="text-1"></path></svg></g></svg></g></svg></g></svg></g></svg></g></svg></g></svg></g><g><path d="M245.816 0c68.262 0 123.6 55.338 123.6 123.6 0 68.262-55.338 123.6-123.6 123.6-49.834 0-92.779-29.492-112.335-71.974l2.659 0c19.386 41.113 61.208 69.564 109.676 69.564 66.931 0 121.19-54.259 121.189-121.19 0-66.931-54.259-121.19-121.189-121.19-48.467 0-90.289 28.452-109.676 69.564l-2.659 0c19.556-42.483 62.501-71.974 112.335-71.974z" fill="#f6f6f6" stroke="transparent" data-fill-palette-color="tertiary"></path></g></svg></g><defs></defs></svg><rect width="395.52" height="247.2" fill="none" stroke="none" visibility="hidden"></rect></g></svg></g></svg>